<svg viewBox="-19 -103 605.338 605" xmlns="http://www.w3.org/2000/svg">
  <path d="M540.805 170.652a91.755 91.755 0 0 0-32.461-20.511 9.984 9.984 0 0 1-6.469-9.356 88.193 88.193 0 0 0-26.297-55.578c-24.41-23.867-59.969-32.371-92.531-22.125-5.188 1.61-10.711-1.219-12.43-6.371a90.968 90.968 0 0 0-22.262-35.785A92.962 92.962 0 0 0 262.863-3.16c-41.703 9.996-70.93 47.52-70.422 90.398V97.77a9.99 9.99 0 0 1-6.128 9.183 9.989 9.989 0 0 1-10.84-2.078l-11.352-11.18c-12.027-11.785-31.281-11.785-43.308 0-9.489 9.414-11.473 24.032-4.833 35.633a9.984 9.984 0 0 1-8.656 14.973H92.41c-42.64-.602-80.055 28.308-90.226 69.726a89.686 89.686 0 0 0 24.558 83.555 91.452 91.452 0 0 0 64.555 26.371h21.289c5.512 0 9.98 4.469 9.98 9.985V204.172c0-34.297 82.79-49.91 159.711-49.91 76.918 0 159.707 15.613 159.707 49.91v129.766a9.983 9.983 0 0 1 9.985-9.985h23.105c42.653.606 80.07-28.316 90.227-69.742 6.824-30.211-2.442-61.805-24.496-83.559zm0 0"/>
  <path d="M142.531 309.828v14.125c0 8.985 47.543 29.945 139.746 29.945s139.746-20.96 139.746-29.945v-14.125c-29.156 16.402-85.847 24.11-139.746 24.11-53.902 0-110.59-7.708-139.746-24.11zm0 0"/>
  <path d="M142.531 269.902v14.125c0 8.98 47.543 29.946 139.746 29.946s139.746-20.965 139.746-29.946v-14.125c-29.156 16.403-85.847 24.106-139.746 24.106-53.902 0-110.59-7.703-139.746-24.106zm0 0"/>
  <path d="M142.531 229.977v14.12c0 8.985 47.543 29.95 139.746 29.95s139.746-20.965 139.746-29.95v-14.12c-29.156 16.398-85.847 24.105-139.746 24.105-53.902 0-110.59-7.707-139.746-24.105zm0 0"/>
  <path d="M422.023 204.172c0-16.535-62.566-29.945-139.746-29.945s-139.746 13.41-139.746 29.945c0 16.539 62.567 29.945 139.746 29.945 77.18 0 139.746-13.406 139.746-29.945zm0 0M142.531 349.758v14.125c0 8.98 47.543 29.945 139.746 29.945s139.746-20.965 139.746-29.945v-14.125c-29.156 16.398-85.847 24.105-139.746 24.105-53.902 0-110.59-7.707-139.746-24.105zm0 0"/>
</svg>
