<?xml version="1.0" encoding="iso-8859-1"?>
<!-- Generator: Adobe Illustrator 17.1.0, SVG Export Plug-In . SVG Version: 6.00 Build 0)  -->
<!DOCTYPE svg PUBLIC "-//W3C//DTD SVG 1.1//EN" "http://www.w3.org/Graphics/SVG/1.1/DTD/svg11.dtd">
<svg version="1.1" id="Capa_1" xmlns="http://www.w3.org/2000/svg" xmlns:xlink="http://www.w3.org/1999/xlink" x="0px" y="0px"
	 viewBox="0 0 465 465" style="enable-background:new 0 0 465 465;" xml:space="preserve">
<g>
	<path d="M256.832,336.593h-7.396c0.932-2.639,0.35-5.692-1.76-7.804c-2.93-2.928-7.678-2.928-10.607,0l-4.696,4.697l-4.696-4.697
		c-2.93-2.928-7.678-2.928-10.607,0c-2.111,2.111-2.692,5.165-1.76,7.804h-7.396c-4.143,0-7.5,3.357-7.5,7.5s3.357,7.5,7.5,7.5
		h48.92c4.143,0,7.5-3.357,7.5-7.5S260.975,336.593,256.832,336.593z"/>
	<path d="M421.26,150.748c0-4.143-3.357-7.5-7.5-7.5h-4.571c-4.431-12.156-10.103-23.857-16.948-34.884
		c2.216-1.303,3.708-3.706,3.708-6.463c0-4.143-3.357-7.5-7.5-7.5h-5.782c-1.269-1.682-2.559-3.35-3.886-4.991
		c-25.423-31.417-60.567-53.987-99.433-63.993c-1.398-10.695-6.704-18.04-15.855-21.85C254.925,0,243.995,0,232.481,0
		C220.98,0,210.06,0,201.49,3.573c-9.138,3.811-14.437,11.15-15.836,21.833c-38.932,9.962-74.139,32.511-99.611,63.933
		c-1.349,1.664-2.659,3.356-3.947,5.063h-5.801c-4.143,0-7.5,3.357-7.5,7.5c0,2.761,1.495,5.166,3.716,6.468
		c-6.847,11.024-12.521,22.723-16.953,34.878H51.24c-4.143,0-7.5,3.357-7.5,7.5c0,3.991,3.119,7.244,7.052,7.477
		c-4.385,16.057-6.67,32.721-6.67,49.534v209.702c0,0.013-0.002,0.025-0.002,0.039s0.002,0.026,0.002,0.039V457.5
		c0,4.143,3.357,7.5,7.5,7.5h81.937c4.143,0,7.5-3.357,7.5-7.5s-3.357-7.5-7.5-7.5h-2.5v-32.481c0-0.007,0.001-0.013,0.001-0.019
		s-0.001-0.013-0.001-0.019v-75.405c6.078,21.835,18.238,40.673,35.399,54.715c18.691,15.294,41.484,23.378,65.914,23.378
		s47.223-8.084,65.914-23.378c17.163-14.043,29.323-32.883,35.399-54.717V450h-2.5c-4.143,0-7.5,3.357-7.5,7.5s3.357,7.5,7.5,7.5
		h81.937c4.143,0,7.5-3.357,7.5-7.5V207.76c0-16.807-2.283-33.467-6.665-49.522C418.008,158.132,421.26,154.824,421.26,150.748z
		 M276.382,40.145c34.339,9.01,64.258,28.392,86.635,54.257h-77.459c-4.143,0-7.5,3.357-7.5,7.5s3.357,7.5,7.5,7.5h89.081
		c7.302,10.544,13.47,21.892,18.328,33.847H260.923l4.216-79.588L276.382,40.145z M232.425,15h0.112c9.972,0,19.391,0,25.19,2.415
		c3.429,1.427,6.616,3.946,6.976,12.381l-13.741,28.741c-0.425,0.89-0.671,1.854-0.723,2.839l-4.87,91.932h-25.738l-4.452-84.035
		h17.193c4.143,0,7.5-3.357,7.5-7.5s-3.357-7.5-7.5-7.5h-20.373l-11.706-24.485C200.789,16.494,207.753,15,232.425,15z
		 M90.119,109.401h89.326c4.143,0,7.5-3.357,7.5-7.5s-3.357-7.5-7.5-7.5H101.75c22.427-25.899,52.427-45.289,86.863-54.268
		l11.248,23.527l4.216,79.588H71.781C76.641,131.292,82.812,119.944,90.119,109.401z M116.059,450H59.122v-25h56.937V450z
		 M333.686,223.102l-81.347,8.563c-3.817,0.402-6.715,3.621-6.715,7.459v60.911c0,4.143,3.357,7.5,7.5,7.5s7.5-3.357,7.5-7.5
		v-54.159l73.062-7.69v8.909c-0.931,6.529-1.892,13.528-2.876,20.694c-3.268,23.813-6.971,50.804-10.444,65.859
		c-9.866,42.778-45.228,71.521-87.993,71.521c-42.765,0-78.127-28.742-87.993-71.521c-3.472-15.054-7.176-42.039-10.442-65.848
		c-0.985-7.171-1.947-14.175-2.878-20.708v-8.907l79.776,8.397c0.267,0.028,0.531,0.042,0.794,0.042c3.79,0,7.045-2.863,7.45-6.716
		c0.434-4.119-2.555-7.811-6.674-8.244l-81.347-8.563v-22.736c18.341,1.742,63.684,5.65,101.313,5.65s82.974-3.908,101.313-5.65
		V223.102z M405.622,450h-56.937v-25h56.937V450z M405.622,410h-56.937V229.852c0-0.01,0-0.019,0-0.029v-37.735
		c0-2.127-0.903-4.154-2.484-5.576c-1.582-1.424-3.695-2.104-5.809-1.882c-0.601,0.063-60.648,6.387-108.021,6.387
		c-47.371,0-107.42-6.323-108.021-6.387c-2.113-0.223-4.227,0.46-5.809,1.882c-1.581,1.422-2.484,3.449-2.484,5.576v37.735
		c0,0.01,0,0.019,0,0.029V410H59.122V207.76c0-17.065,2.572-33.708,7.359-49.512h138.391l0.156,2.956
		c0.211,3.982,3.501,7.104,7.489,7.104h39.965c3.988,0,7.278-3.121,7.489-7.104l0.156-2.956h138.135
		c4.787,15.806,7.358,32.449,7.358,49.512V410z"/>
</g>
<g>
</g>
<g>
</g>
<g>
</g>
<g>
</g>
<g>
</g>
<g>
</g>
<g>
</g>
<g>
</g>
<g>
</g>
<g>
</g>
<g>
</g>
<g>
</g>
<g>
</g>
<g>
</g>
<g>
</g>
</svg>
