<svg viewBox="0 0 48 48" xmlns="http://www.w3.org/2000/svg">
  <path d="M44 42H4c-2.206 0-4-1.874-4-4.177V8.177C0 5.874 1.794 4 4 4h40c2.206 0 4 1.874 4 4.177v29.646C48 40.126 46.206 42 44 42zM4 6c-1.103 0-2 .977-2 2.177v29.646C2 39.023 2.897 40 4 40h40c1.103 0 2-.977 2-2.177V8.177C46 6.977 45.103 6 44 6H4zM38 46H10c-.552 0-1-.448-1-1s.448-1 1-1h28c.552 0 1 .448 1 1s-.448 1-1 1z" fill="#ffffffCC"/>
  <path d="M24 46c-.552 0-1-.448-1-1v-4c0-.552.448-1 1-1s1 .448 1 1v4c0 .552-.448 1-1 1z"
    fill="#ffffff50"/>
  <circle cx="24" cy="37" r="2" fill="#ffffff50"/>
  <path d="M1 32h46v2H1z" fill="#ffffff50" />
</svg>
