<?xml version="1.0" encoding="iso-8859-1"?>
<!-- Generator: Adobe Illustrator 17.1.0, SVG Export Plug-In . SVG Version: 6.00 Build 0)  -->
<!DOCTYPE svg PUBLIC "-//W3C//DTD SVG 1.1//EN" "http://www.w3.org/Graphics/SVG/1.1/DTD/svg11.dtd">
<svg version="1.1" id="Capa_1" xmlns="http://www.w3.org/2000/svg" xmlns:xlink="http://www.w3.org/1999/xlink" x="0px" y="0px"
	 viewBox="0 0 465 465" style="enable-background:new 0 0 465 465;" xml:space="preserve">
<g>
	<path d="M387.5,27.517c-19.413,0-37.999,7.238-52.333,20.382c-13.557,12.43-22.2,29.088-24.53,47.161L14.605,391.092l-1.768-1.768
		c-2.93-2.928-7.678-2.928-10.607,0c-2.929,2.93-2.929,7.678,0,10.607l35.355,35.355c1.465,1.464,3.385,2.196,5.304,2.196
		s3.839-0.732,5.304-2.196c2.929-2.93,2.929-7.678,0-10.607l-1.768-1.768l306.378-306.378c1.406-1.407,2.196-3.314,2.196-5.304
		v-6.214c0-17.921,14.579-32.5,32.5-32.5s32.5,14.579,32.5,32.5s-14.579,32.5-32.5,32.5c-20.733,0-40.711,9.819-53.44,26.268
		c-2.311,2.985-2.041,7.224,0.628,9.894l21.564,21.564c1.645,1.644,3.957,2.438,6.267,2.134c2.307-0.298,4.344-1.65,5.516-3.659
		c4.029-6.908,11.488-11.2,19.466-11.2c42.733,0,77.5-34.767,77.5-77.5S430.233,27.517,387.5,27.517z M431.91,88.188l13.125-7.578
		c3.195,7.502,4.965,15.751,4.965,24.406c0,8.711-1.797,17.009-5.03,24.55l-13.118-7.573c2.026-5.276,3.148-10.996,3.148-16.976
		C435,99.093,433.9,93.423,431.91,88.188z M277.518,170.606l-10.607-10.607l29.676-29.676l10.607,10.607L277.518,170.606z
		 M237.235,210.889l-10.606-10.606l29.676-29.676l10.607,10.607L237.235,210.889z M196.951,251.172l-10.606-10.606l29.676-29.676
		l10.606,10.606L196.951,251.172z M156.668,291.455l-10.606-10.606l29.676-29.676l10.606,10.606L156.668,291.455z M116.385,331.738
		l-10.606-10.606l29.676-29.676l10.606,10.606L116.385,331.738z M76.102,372.021l-10.606-10.606l29.676-29.676l10.606,10.606
		L76.102,372.021z M25.213,401.699l29.676-29.676l10.606,10.606l-29.676,29.676L25.213,401.699z M340,108.124l-22.199,22.199
		l-10.607-10.607l15.909-15.909c1.237-1.238,2.003-2.869,2.164-4.611c0.609-6.567,2.273-12.833,4.791-18.654l13.071,7.547
		C341.114,93.351,340,99.055,340,105.017V108.124z M350.637,75.103l-13.02-7.518c10.092-13.325,25.356-22.52,42.489-24.604v15.114
		C368.272,59.953,357.879,66.197,350.637,75.103z M395.105,58.133V42.996c17.312,2.111,32.466,11.31,42.438,24.619l-13.115,7.572
		C417.228,66.29,406.888,60.038,395.105,58.133z M360.861,178.637l-10.601-10.6c8.056-8.062,18.608-13.346,29.845-14.977v15.201
		C372.811,169.741,366.097,173.371,360.861,178.637z M395.105,167.037V151.9c11.728-1.896,22.029-8.097,29.225-16.929l13.115,7.572
		C427.472,155.783,412.362,164.933,395.105,167.037z"/>
	<path d="M7.232,313.872c0.092,0.003,0.182,0.005,0.272,0.005c4.019,0,7.346-3.185,7.49-7.232l4.742-132.891H30v132.623
		c0,4.143,3.357,7.5,7.5,7.5s7.5-3.357,7.5-7.5V173.754h10.263l4.742,132.891c0.145,4.049,3.472,7.232,7.49,7.232
		c0.091,0,0.182-0.002,0.272-0.005c4.14-0.147,7.375-3.623,7.228-7.763l-5-140.123c-0.004-0.105-0.019-0.208-0.027-0.312
		c-0.009-0.115-0.016-0.229-0.03-0.344c-0.021-0.17-0.052-0.336-0.084-0.501c-0.015-0.079-0.022-0.159-0.04-0.238l-19.24-84.657
		l121.685,121.685c1.465,1.464,3.385,2.196,5.304,2.196s3.839-0.732,5.304-2.196c2.929-2.93,2.929-7.678,0-10.607L48.106,56.254
		l10.606-10.606l134.759,134.759c2.93,2.928,7.678,2.928,10.607,0c2.929-2.93,2.929-7.678,0-10.607L64.017,29.737
		c-2.931-2.93-7.679-2.928-10.607,0L32.196,50.95c-0.039,0.039-0.071,0.081-0.109,0.12c-0.104,0.109-0.205,0.22-0.303,0.335
		c-0.06,0.07-0.119,0.141-0.176,0.213c-0.088,0.111-0.171,0.227-0.252,0.343c-0.054,0.077-0.11,0.152-0.16,0.23
		c-0.08,0.123-0.152,0.252-0.225,0.38c-0.069,0.121-0.134,0.244-0.195,0.368c-0.071,0.145-0.142,0.29-0.204,0.44
		c-0.044,0.107-0.08,0.216-0.119,0.324c-0.039,0.107-0.078,0.213-0.112,0.322c-0.035,0.112-0.063,0.226-0.093,0.34
		c-0.02,0.076-0.044,0.15-0.062,0.227L5.215,164.465c-0.004,0.015-0.006,0.029-0.01,0.044l-0.019,0.082
		c-0.012,0.052-0.016,0.105-0.026,0.157c-0.04,0.194-0.075,0.389-0.099,0.589c-0.013,0.109-0.02,0.219-0.028,0.328
		c-0.008,0.107-0.024,0.212-0.028,0.32l-5,140.123C-0.143,310.249,3.093,313.725,7.232,313.872z M37.5,90.096l15.604,68.658H21.895
		L37.5,90.096z"/>
	<path d="M427.139,389.324l-1.768,1.768L267.718,233.438c-2.93-2.928-7.678-2.928-10.607,0c-2.929,2.93-2.929,7.678,0,10.607
		l157.653,157.653l-10.605,10.605L246.505,254.651c-2.93-2.928-7.678-2.928-10.607,0c-2.929,2.93-2.929,7.678,0,10.607
		l157.653,157.653l-1.768,1.768c-2.929,2.93-2.929,7.678,0,10.607c1.465,1.464,3.385,2.196,5.304,2.196s3.839-0.732,5.304-2.196
		l35.355-35.355c2.929-2.93,2.929-7.678,0-10.607C434.816,386.396,430.068,386.396,427.139,389.324z"/>
</g>
<g>
</g>
<g>
</g>
<g>
</g>
<g>
</g>
<g>
</g>
<g>
</g>
<g>
</g>
<g>
</g>
<g>
</g>
<g>
</g>
<g>
</g>
<g>
</g>
<g>
</g>
<g>
</g>
<g>
</g>
</svg>
