<svg xmlns="http://www.w3.org/2000/svg" viewBox="0 0 448.478 448.478">
  <path fill="#636363" d="M259.815 118.594c-15.48 0-28.074 12.594-28.074 28.074s12.595 28.074 28.075 28.074 28.074-12.594 28.074-28.074-12.595-28.074-28.075-28.074zm0 41.148c-7.21 0-13.074-5.865-13.074-13.074s5.866-13.074 13.075-13.074 13.074 5.865 13.074 13.074-5.866 13.074-13.075 13.074zM188.663 118.594c-15.48 0-28.074 12.594-28.074 28.074s12.593 28.074 28.073 28.074 28.074-12.594 28.074-28.074-12.594-28.074-28.074-28.074zm0 41.148c-7.21 0-13.074-5.865-13.074-13.074s5.864-13.074 13.073-13.074 13.074 5.865 13.074 13.074-5.865 13.074-13.074 13.074z"/>
  <path fill="#636363" d="M440.978 52.915c-9.953 0-15.276 3.438-19.553 6.2-3.543 2.29-5.885 3.8-11.416 3.8s-7.873-1.512-11.416-3.8c-4.277-2.762-9.6-6.2-19.553-6.2-9.952 0-15.274 3.438-19.55 6.2-3.542 2.29-5.883 3.8-11.413 3.8s-7.87-1.512-11.413-3.8c-4.277-2.762-9.6-6.2-19.552-6.2-1.422 0-2.74.077-3.983.205C295.807 21.837 262.457.607 224.237.607s-71.572 21.23-88.893 52.516c-1.25-.13-2.574-.208-4.004-.208-9.95 0-15.273 3.438-19.55 6.2-3.54 2.288-5.882 3.8-11.41 3.8s-7.87-1.512-11.41-3.8c-4.277-2.762-9.6-6.2-19.55-6.2s-15.274 3.438-19.55 6.2c-3.543 2.288-5.883 3.8-11.41 3.8s-7.87-1.512-11.412-3.8c-4.276-2.762-9.598-6.2-19.55-6.2-4.142 0-7.5 3.358-7.5 7.5s3.358 7.5 7.5 7.5c5.528 0 7.87 1.512 11.41 3.8 4.277 2.762 9.6 6.2 19.55 6.2 9.953 0 15.274-3.438 19.55-6.2 3.543-2.288 5.883-3.8 11.41-3.8s7.87 1.512 11.41 3.8c4.277 2.762 9.6 6.2 19.55 6.2s15.275-3.438 19.55-6.2c2.892-1.868 4.985-3.217 8.662-3.65-3.81 10.657-5.89 22.13-5.89 34.08 0 19.214 5.362 41.227 15.098 61.982 9.717 20.716 14.645 42.292 14.645 64.13v60.894c0 6.43-4.966 11.9-11.07 12.197-3.227.16-6.29-.98-8.625-3.205-2.337-2.227-3.625-5.224-3.625-8.44V266.32c0-13.05-10.372-23.864-23.12-24.105-6.38-.128-12.406 2.274-16.96 6.744-4.558 4.47-7.067 10.445-7.067 16.824v22.954c0 32.198 25.745 59.002 57.39 59.753 15.96.38 31.046-5.562 42.48-16.73.955-.932 1.86-1.9 2.742-2.882v60.18c0 3.213-1.288 6.21-3.627 8.436-2.336 2.226-5.4 3.36-8.63 3.206-6.1-.297-11.06-5.768-11.06-12.195v-10.583c0-6.374-2.507-12.344-7.058-16.81-4.554-4.47-10.56-6.848-16.956-6.75-12.756.223-23.134 11.034-23.134 24.1v10.596c0 15.95 6.3 30.888 17.74 42.06 11.09 10.833 25.62 16.748 41.05 16.748.475 0 .952-.005 1.43-.017 21.205-.507 39.75-12.72 49.685-30.404 2.755 4.974 6.25 9.58 10.446 13.677 11.092 10.833 25.62 16.748 41.05 16.748.477 0 .954-.004 1.43-.016 31.647-.755 57.394-27.562 57.394-59.756v-10.17c0-6.378-2.506-12.35-7.056-16.817-4.55-4.465-10.587-6.838-16.942-6.742-12.764.223-23.147 11.033-23.147 24.1v10.596c0 3.214-1.287 6.21-3.625 8.438-2.338 2.225-5.414 3.36-8.632 3.205-6.1-.297-11.06-5.768-11.06-12.195v-60.098c10.503 11.96 25.617 19.68 42.39 20.078.48.01.957.017 1.435.017 15.428 0 29.956-5.917 41.048-16.75 11.44-11.17 17.74-26.108 17.74-42.058V266.32c0-13.05-10.37-23.864-23.12-24.105-6.375-.12-12.405 2.274-16.96 6.744-4.557 4.47-7.066 10.445-7.066 16.824v23.366c0 6.428-4.966 11.9-11.07 12.196-3.23.16-6.29-.98-8.625-3.205-2.337-2.226-3.625-5.223-3.625-8.44v-61.443c0-21.838 4.927-43.415 14.645-64.13 9.736-20.756 15.098-42.77 15.098-61.984 0-11.95-2.08-23.42-5.89-34.076 3.666.436 5.755 1.784 8.64 3.65 4.278 2.76 9.6 6.2 19.553 6.2s15.275-3.44 19.55-6.2c3.543-2.29 5.884-3.8 11.414-3.8 5.53 0 7.872 1.51 11.416 3.8 4.277 2.76 9.6 6.2 19.553 6.2 9.953 0 15.275-3.44 19.552-6.2 3.543-2.29 5.884-3.8 11.415-3.8 4.142 0 7.5-3.36 7.5-7.5s-3.357-7.502-7.5-7.502zm-216.74-37.308c31.73 0 59.52 17.17 74.584 42.7-.43.273-.853.544-1.26.808-3.543 2.29-5.884 3.8-11.414 3.8s-7.87-1.512-11.412-3.8c-4.276-2.763-9.6-6.2-19.55-6.2-9.953 0-15.274 3.438-19.55 6.2-3.543 2.288-5.883 3.8-11.41 3.8-5.528 0-7.868-1.512-11.41-3.8-4.276-2.762-9.598-6.2-19.55-6.2-9.95 0-15.273 3.438-19.55 6.2-3.542 2.29-5.883 3.8-11.413 3.8s-7.87-1.512-11.412-3.8c-.402-.26-.818-.528-1.243-.796 15.064-25.54 42.858-42.713 74.592-42.713zm72.86 142.15c-10.66 22.723-16.065 46.443-16.065 70.5V289.7c0 7.255 3.018 14.29 8.28 19.302 5.334 5.083 12.332 7.68 19.697 7.326 14.21-.69 25.342-12.63 25.342-27.18v-23.365c0-2.318.913-4.49 2.57-6.118 1.658-1.626 3.84-2.507 6.173-2.454 4.634.09 8.404 4.175 8.404 9.11v23.38c0 11.875-4.696 23-13.222 31.327-8.52 8.32-19.775 12.76-31.647 12.466-23.568-.56-42.744-20.637-42.744-44.757V217.42c0-4.142-3.358-7.5-7.5-7.5s-7.5 3.358-7.5 7.5v171.088c0 14.547 11.126 26.485 25.327 27.178 7.377.36 14.368-2.24 19.708-7.324 5.266-5.012 8.285-12.047 8.285-19.3v-10.597c0-4.938 3.772-9.02 8.417-9.102 2.34-.027 4.513.827 6.166 2.45 1.654 1.624 2.564 3.794 2.564 6.112v10.17c0 24.12-19.178 44.198-42.75 44.76-11.89.286-23.124-4.146-31.643-12.466-8.526-8.327-13.22-19.453-13.22-31.33V226.754c0-4.142-3.358-7.5-7.5-7.5s-7.5 3.358-7.5 7.5V388.13c-.022 24.1-19.19 44.157-42.75 44.72-11.876.267-23.125-4.147-31.643-12.467-8.525-8.326-13.22-19.453-13.22-31.33V378.46c0-4.938 3.766-9.02 8.403-9.102 2.327-.033 4.52.83 6.18 2.456 1.653 1.624 2.563 3.792 2.563 6.106V388.5c0 14.55 11.126 26.487 25.327 27.178 7.373.367 14.368-2.24 19.708-7.324 5.265-5.012 8.284-12.047 8.284-19.3V217.42c0-4.142-3.358-7.5-7.5-7.5s-7.5 3.358-7.5 7.5v72.28c0 11.874-4.695 23-13.22 31.326-8.522 8.32-19.756 12.766-31.648 12.466-23.57-.56-42.745-20.637-42.745-44.757v-22.954c0-2.318.912-4.49 2.57-6.12 1.657-1.625 3.846-2.497 6.17-2.452 4.635.09 8.405 4.175 8.405 9.11v23.38c0 7.254 3.018 14.29 8.28 19.3 5.334 5.084 12.33 7.68 19.697 7.327 14.21-.69 25.342-12.63 25.342-27.18v-60.892c0-24.057-5.405-47.777-16.064-70.5-8.82-18.804-13.678-38.554-13.678-55.614 0-10.61 1.924-20.78 5.434-30.18 4.213 2.716 9.508 5.953 19.167 5.953 9.953 0 15.275-3.438 19.55-6.2 3.543-2.288 5.884-3.8 11.413-3.8 5.528 0 7.868 1.512 11.41 3.8 4.276 2.762 9.598 6.2 19.55 6.2 9.95 0 15.272-3.438 19.548-6.2 3.542-2.288 5.882-3.8 11.41-3.8 5.53 0 7.87 1.512 11.412 3.8 4.276 2.763 9.6 6.2 19.55 6.2 9.676 0 14.972-3.247 19.188-5.965 3.513 9.405 5.44 19.578 5.44 30.193 0 17.063-4.857 36.813-13.677 55.616z"/>
</svg>
