<?xml version="1.0" encoding="UTF-8" standalone="no"?>
<!-- Generator: Adobe Illustrator 19.0.0, SVG Export Plug-In . SVG Version: 6.00 Build 0)  -->

<svg
   xmlns:dc="http://purl.org/dc/elements/1.1/"
   xmlns:cc="http://creativecommons.org/ns#"
   xmlns:rdf="http://www.w3.org/1999/02/22-rdf-syntax-ns#"
   xmlns:svg="http://www.w3.org/2000/svg"
   xmlns="http://www.w3.org/2000/svg"
   xmlns:sodipodi="http://sodipodi.sourceforge.net/DTD/sodipodi-0.dtd"
   xmlns:inkscape="http://www.inkscape.org/namespaces/inkscape"
   version="1.1"
   id="Capa_1"
   x="0px"
   y="0px"
   viewBox="0 0 60 60"
   style="enable-background:new 0 0 60 60;"
   xml:space="preserve"
   sodipodi:docname="ipad.svg"
   inkscape:version="0.92.2 (5c3e80d, 2017-08-06)"><metadata
     id="metadata43"><rdf:RDF><cc:Work
         rdf:about=""><dc:format>image/svg+xml</dc:format><dc:type
           rdf:resource="http://purl.org/dc/dcmitype/StillImage" /><dc:title></dc:title></cc:Work></rdf:RDF></metadata><defs
     id="defs41" /><sodipodi:namedview
     pagecolor="#ffffff"
     bordercolor="#666666"
     borderopacity="1"
     objecttolerance="10"
     gridtolerance="10"
     guidetolerance="10"
     inkscape:pageopacity="0"
     inkscape:pageshadow="2"
     inkscape:window-width="686"
     inkscape:window-height="480"
     id="namedview39"
     showgrid="false"
     inkscape:zoom="3.9333333"
     inkscape:cx="71.313559"
     inkscape:cy="30"
     inkscape:window-x="0"
     inkscape:window-y="0"
     inkscape:window-maximized="0"
     inkscape:current-layer="Capa_1" /><path
     inkscape:connector-curvature="0"
     id="path2"
     d="m 32,3 h -1 c -0.552,0 -1,0.448 -1,1 0,0.552 0.448,1 1,1 h 1 C 32.552,5 33,4.552 33,4 33,3.448 32.552,3 32,3 Z"
     style="fill:#ffffff50;stroke:#ffffff50;stroke-opacity:1" /><path
     inkscape:connector-curvature="0"
     id="path4"
     d="M 48.102,0 H 11.898 C 9.749,0 8,1.777 8,3.961 V 6 52 56.039 C 8,58.223 9.749,60 11.898,60 H 48.101 C 50.251,60 52,58.223 52,56.039 V 52 6 3.961 C 52,1.777 50.251,0 48.102,0 Z M 28.382,58 H 11.898 C 10.852,58 10,57.12 10,56.039 V 52 H 28.382 C 27.542,52.734 27,53.8 27,55 c 0,1.2 0.542,2.266 1.382,3 z m -5.675,-46.293 -3,3 C 19.512,14.902 19.256,15 19,15 c -0.256,0 -0.512,-0.098 -0.707,-0.293 -0.391,-0.391 -0.391,-1.023 0,-1.414 l 3,-3 c 0.391,-0.391 1.023,-0.391 1.414,0 0.391,0.391 0.391,1.023 0,1.414 z m 0.583,1.583 c 0.37,-0.37 1.04,-0.37 1.42,0 0.18,0.19 0.29,0.45 0.29,0.71 0,0.26 -0.11,0.52 -0.29,0.71 C 24.52,14.89 24.26,15 24,15 23.74,15 23.48,14.89 23.29,14.71 23.11,14.52 23,14.26 23,14 c 0,-0.26 0.11,-0.52 0.29,-0.71 z m -5.583,-1.583 -4,4 C 13.512,15.902 13.256,16 13,16 c -0.256,0 -0.512,-0.098 -0.707,-0.293 -0.391,-0.391 -0.391,-1.023 0,-1.414 l 4,-4 c 0.391,-0.391 1.023,-0.391 1.414,0 0.391,0.391 0.391,1.023 0,1.414 z M 18,16 c 0,0.26 -0.11,0.52 -0.29,0.71 C 17.52,16.89 17.26,17 17,17 16.74,17 16.48,16.89 16.29,16.71 16.11,16.52 16,16.26 16,16 c 0,-0.26 0.11,-0.52 0.29,-0.71 0.38,-0.37 1.05,-0.37 1.42,0 C 17.89,15.48 18,15.74 18,16 Z m -5.707,3.293 2,-2 c 0.391,-0.391 1.023,-0.391 1.414,0 0.391,0.391 0.391,1.023 0,1.414 l -2,2 C 13.512,20.902 13.256,21 13,21 c -0.256,0 -0.512,-0.098 -0.707,-0.293 -0.391,-0.391 -0.391,-1.023 0,-1.414 z m 0,5 9,-9 c 0.391,-0.391 1.023,-0.391 1.414,0 0.391,0.391 0.391,1.023 0,1.414 l -9,9 C 13.512,25.902 13.256,26 13,26 c -0.256,0 -0.512,-0.098 -0.707,-0.293 -0.391,-0.391 -0.391,-1.023 0,-1.414 z m 13,-13 1,-1 c 0.391,-0.391 1.023,-0.391 1.414,0 0.391,0.391 0.391,1.023 0,1.414 l -1,1 C 26.512,12.902 26.256,13 26,13 c -0.256,0 -0.512,-0.098 -0.707,-0.293 -0.391,-0.391 -0.391,-1.023 0,-1.414 z M 31,57 c -1.103,0 -2,-0.897 -2,-2 0,-1.103 0.897,-2 2,-2 1.103,0 2,0.897 2,2 0,1.103 -0.897,2 -2,2 z M 50,56.039 C 50,57.12 49.148,58 48.102,58 H 33.618 C 34.458,57.266 35,56.2 35,55 35,53.8 34.458,52.734 33.618,52 H 50 Z M 50,6 H 10 V 3.961 C 10,2.88 10.852,2 11.898,2 H 48.101 C 49.148,2 50,2.88 50,3.961 Z"
     style="fill:#ffffff50;stroke:#ffffff50;stroke-opacity:1" /><g
     id="g8" /><g
     id="g10" /><g
     id="g12" /><g
     id="g14" /><g
     id="g16" /><g
     id="g18" /><g
     id="g20" /><g
     id="g22" /><g
     id="g24" /><g
     id="g26" /><g
     id="g28" /><g
     id="g30" /><g
     id="g32" /><g
     id="g34" /><g
     id="g36" /></svg>
