<svg xmlns="http://www.w3.org/2000/svg" id="Layer_1" version="1.1"
     viewBox="118 136 376 132">
    <defs>
        <style>
            .st0{fill:#010101}.st2{fill:#fff}.st3{fill:none;stroke:#010101;stroke-linecap:round;stroke-linejoin:round;stroke-width:3.47px}
        </style>
    </defs>
    <path d="m267.43 173.68-19.85-21.8-31.64 8.56M267.43 194.25l-25.62-20.13-26.54 13.3M275.84 204.22l-32.66-5.6-24.51 18.2M302.29 177.54l17.69-26.35 15.16 8.99 16.48 10.46"
          class="st3"/>
    <path d="m315.43 189.91 11.44-17.61 23.6 6.32M301.36 198.63l29.72-2.49 17.53 19.39" class="st3"/>
    <path d="M288.61 219.91c-17.24 0-31.27-14.43-31.27-32.17s14.03-32.17 31.27-32.17 31.27 14.43 31.27 32.17-14.03 32.17-31.27 32.17Z"
          style="fill:#5c371b"/>
    <path d="M288.61 155.67c17.19 0 31.17 14.39 31.17 32.07s-13.98 32.07-31.17 32.07-31.17-14.39-31.17-32.07 13.98-32.07 31.17-32.07m0-.2c-17.33 0-31.37 14.45-31.37 32.27s14.05 32.27 31.37 32.27 31.37-14.45 31.37-32.27-14.05-32.27-31.37-32.27Z"
          class="st0"/>
    <path d="M297.12 164.54c-4.98 0-9.03-4.2-9.03-9.37s4.05-9.37 9.03-9.37 9.03 4.2 9.03 9.37-4.05 9.37-9.03 9.37Z"
          class="st2"/>
    <path d="M297.12 148.55c3.46 0 6.28 2.97 6.28 6.62s-2.82 6.62-6.28 6.62-6.28-2.97-6.28-6.62 2.82-6.62 6.28-6.62m0-5.5c-6.51 0-11.78 5.43-11.78 12.12s5.28 12.12 11.78 12.12 11.78-5.43 11.78-12.12-5.28-12.12-11.78-12.12Z"
          class="st0"/>
    <path d="M277.6 164.03c-4.98 0-9.03-4.2-9.03-9.37s4.05-9.37 9.03-9.37 9.03 4.2 9.03 9.37-4.05 9.37-9.03 9.37Z"
          class="st2"/>
    <path d="M277.6 148.04c3.46 0 6.28 2.97 6.28 6.62s-2.82 6.62-6.28 6.62-6.28-2.97-6.28-6.62 2.82-6.62 6.28-6.62m0-5.51c-6.51 0-11.78 5.43-11.78 12.12s5.28 12.12 11.78 12.12 11.78-5.43 11.78-12.12-5.28-12.12-11.78-12.12ZM141.09 176.07c9.1-12.8 18.2-25.27 27.3-37.49 9.18 0 18.36-.02 27.55-.02a2245.001 2245.001 0 0 0-34.13 42.35c12.39 15.25 24.78 30.11 37.17 44.75-4.18.21-8.36.44-12.55.68-9.69-12.12-19.38-24.4-29.07-36.95-5.43 13.17-10.86 26.52-16.29 40.08-7.42.6-14.83 1.24-22.25 1.93v-92.76l22.27-.03v37.46ZM227.97 138.54c-.01 28.61-.03 57.22-.04 85.83-7.43.28-14.85.59-22.27.95.01-28.92.03-57.84.04-86.77 7.42 0 14.85 0 22.27-.01ZM342.04 198.48c4.77 4.5 11.98 8.81 19.7 8.98 4.51.1 7.21-1.24 8.63-2.74 1.29-1.25 2.19-3.15 2.19-5.33 0-1.67-.65-3.6-2.45-5.17-2.19-1.96-5.54-2.92-11.07-4.67-1.93-.62-3.86-1.25-5.79-1.87-3.61-1.19-8.89-3.16-12.36-7-4.38-4.73-4.9-10.69-4.9-15.01 0-10.4 4.12-16.73 7.85-20.41 4.38-4.31 11.58-8 22.01-8 8.49 0 18.41 2.68 26.52 6.97-2.96 5.8-5.92 11.58-8.87 17.34-6.7-5.34-11.72-5.87-14.68-5.89-2.19-.01-5.15.48-7.34 2.51-1.29 1.27-2.19 2.66-2.19 4.58 0 1.53.26 2.68 1.16 3.84.64.77 2.19 2.31 7.47 3.91l6.82 2.13c5.41 1.74 11.07 3.75 15.58 8.75 4.38 4.74 5.54 9.56 5.54 15.51 0 7.89-1.92 15.47-8.1 21.43-7.34 7.08-16.22 8.15-25.36 7.91-5.41-.15-10.56-.78-16.87-3.19-1.42-.54-6.83-2.67-13.01-6.92 3.18-5.88 6.35-11.76 9.53-17.65ZM435.26 174.38c9.09-11.91 18.18-24.02 27.27-36.41 9.18 0 18.36.01 27.55.02-11.37 14.6-22.73 28.71-34.1 42.49 12.4 16.17 24.8 32.86 37.19 50.27-4.18-.38-8.35-.75-12.53-1.11-9.69-14.06-19.39-27.7-29.08-41-5.42 12.7-10.84 25.24-16.27 37.66-7.42-.46-14.84-.88-22.27-1.26-.01-29.03-.03-58.06-.04-87.09h22.27c0 12.14.01 24.28.02 36.42ZM119.12 266.67v-16.25h9.75v3.25h3.25v9.75h-3.25v3.25h-9.75Zm3.25-3.25h6.37v-9.75h-6.37v9.75ZM138.62 266.67v-16.25h3.25v16.25h-3.25ZM148.38 263.42v-9.75h3.25v9.75h-3.25Zm3.25-9.75v-3.25h9.75v3.25h-9.75Zm0 13v-3.25h6.5v3.25h-6.5Zm6.5-3.25v-3.25h-3.25v-3.25h6.5v6.5h-3.25ZM167.88 266.67v-16.25h3.25v16.25h-3.25ZM180.89 266.67v-13h-3.25v-3.25h9.75v3.25h-3.25v13h-3.25ZM193.89 266.67v-13h3.25v-3.25h6.5v3.25h3.25v13h-3.25v-6.5h-6.5v6.5h-3.25Zm3.25-9.75h6.5v-3.12h-6.5v3.12ZM213.39 266.67v-16.25h3.25v13h6.5v3.25h-9.75ZM242.65 266.67v-16.25h9.75v3.25h-6.5v3.25h6.5v3.25h-6.5v6.5h-3.25ZM258.91 266.67v-16.25h3.25v16.25h-3.25ZM268.66 266.67v-16.25h9.75v3.25h-6.5v3.25h6.5v3.25h-6.5v3.25h6.5v3.25h-9.75ZM284.91 266.67v-16.25h3.25v13h6.5v3.25h-9.75ZM301.17 266.67v-16.25h9.75v3.25h3.25v9.75h-3.25v3.25h-9.75Zm3.25-3.25h6.37v-9.75h-6.37v9.75ZM333.68 266.67v-16.25h9.75v3.25h3.25v3.25h-3.25v6.5h3.25v3.25h-3.25v-3.25h-3.25v-3.25h-3.25v6.5h-3.25Zm3.25-9.75h6.37v-3.25h-6.37v3.25ZM353.18 266.67v-16.25h9.75v3.25h-6.5v3.25h6.5v3.25h-6.5v3.25h6.5v3.25h-9.75ZM372.69 266.67v-3.25h-3.25v-9.75h3.25v9.75h6.5v3.25h-6.5Zm6.5-9.75v-3.25h-6.5v-3.25h6.5v3.25h3.25v3.25h-3.25Zm0 6.5v-3.25h3.25v3.25h-3.25ZM392.19 266.67v-3.25h-3.25v-9.75h3.25v-3.25h6.5v3.25h3.25v9.75h-3.25v3.25h-6.5Zm0-3.38h6.5v-9.49h-6.5v9.49ZM408.45 266.67v-16.25h9.75v3.25h3.25v3.25h-3.25v6.5h3.25v3.25h-3.25v-3.25h-3.25v-3.25h-3.25v6.5h-3.25Zm3.25-9.75h6.37v-3.25h-6.37v3.25ZM427.95 266.67v-16.25h9.75v3.25h3.25v9.75h-3.25v3.25h-9.75Zm3.25-3.25h6.37v-9.75h-6.37v9.75ZM447.46 266.67v-16.25h3.25v16.25h-3.25ZM457.21 266.67v-16.25h3.25v3.25h3.25v3.25h3.25v3.25h3.25v-9.75h3.25v16.25h-3.25v-3.25h-3.25v-3.25h-3.25v-3.25h-3.25v9.75h-3.25ZM479.97 263.42v-9.75h3.25v9.75h-3.25Zm3.25-9.75v-3.25h9.75v3.25h-9.75Zm0 13v-3.25h6.5v3.25h-6.5Zm6.5-3.25v-3.25h-3.25v-3.25h6.5v6.5h-3.25Z"
          class="st0"/>
</svg>