<svg height="64" viewBox="0 0 64 64" width="64" xmlns="http://www.w3.org/2000/svg">
  <path d="M11.028 45.416H52.97c1.66 0 2.997-1.342 2.997-2.996V12.46c0-2.206-1.787-3.994-3.992-3.994h-39.95c-2.205 0-3.992 1.788-3.992 3.994v29.96c0 1.654 1.342 2.996 2.995 2.996zm2.005-31.95h37.934v26.95H13.033v-26.95zM57.854 47.252H6.147c-.553 0-1 .447-1 1v3.7c0 1.98 2.01 3.58 4.486 3.58h44.734c2.477 0 4.486-1.6 4.486-3.58v-3.7c0-.553-.447-1-1-1zm-19.616 5.14H25.76c-.55 0-1-.446-1-1s.45-1 1-1H38.24c.553 0 1 .448 1 1s-.447 1-1 1z"
    fill="#636363"/>
</svg>
