<svg xmlns="http://www.w3.org/2000/svg" viewBox="0 0 1000 1000">
  <path d="M504.237 858.644c-202.74 0-367.118-164.38-367.118-367.12 0-202.738 164.378-367.117 367.117-367.117 202.74 0 367.12 164.38 367.12 367.118 0 202.74-164.38 367.12-367.12 367.12zm0-685.313c-175.692 0-318.194 142.503-318.194 318.195 0 175.693 142.427 318.195 318.194 318.195 175.693 0 318.195-142.427 318.195-318.195 0-175.692-142.502-318.194-318.195-318.194zm24.5 489.542h-48.924V516.025H332.965V467.1h146.848V320.254h48.924V467.1h146.847v48.925H528.737z" fill="#636363"/>
</svg>
