<svg xmlns="http://www.w3.org/2000/svg" viewBox="0 0 512 512">
  <path d="M309.043 210.008H202.957c-3.31 0-5.994 2.684-5.994 5.994 0 3.31 2.683 5.994 5.994 5.994h106.086c3.31 0 5.994-2.684 5.994-5.994 0-3.31-2.684-5.994-5.994-5.994zM309.043 246.177H202.957c-3.31 0-5.994 2.684-5.994 5.994 0 3.312 2.683 5.995 5.994 5.995h106.086c3.31 0 5.994-2.684 5.994-5.994 0-3.31-2.684-5.993-5.994-5.993z" fill="#6e6e6e"/>
  <path d="M351.968 179.72c-.04-1.505-.638-2.973-1.745-4.08l-45.845-45.845c-1.088-1.107-2.6-1.796-4.275-1.796h-127.46c-6.96 0-12.625 5.662-12.625 12.623l.003 149.677c0 .053.007.103.01.156.08 3.033 1.65 5.78 4.24 7.39l20.677 12.833c6.824 4.234 15.302 4.234 22.126 0l14.19-8.808c2.925-1.816 6.558-1.815 9.483 0l14.19 8.807c3.412 2.117 7.237 3.176 11.063 3.176 3.825 0 7.65-1.06 11.062-3.177l14.19-8.81c2.925-1.813 6.56-1.813 9.483 0l14.19 8.81c6.823 4.235 15.3 4.235 22.127 0l20.677-12.835c2.59-1.607 4.158-4.356 4.24-7.388 0-.052.008-.104.008-.157l.003-110.422c0-.058-.008-.107-.012-.16zm-45.872-31.253l25.417 25.417h-24.786c-.348 0-.63-.283-.63-.63zM339.99 288.54l-19.26 11.954c-2.924 1.815-6.557 1.815-9.482 0l-14.19-8.808c-6.825-4.234-15.303-4.234-22.126 0l-14.19 8.808c-2.925 1.815-6.56 1.815-9.483 0l-14.192-8.807c-6.823-4.236-15.3-4.236-22.126 0l-14.19 8.807c-2.925 1.815-6.558 1.815-9.483 0l-19.26-11.954-.004-147.916c0-.35.286-.636.636-.636h121.466v33.266c0 6.958 5.66 12.62 12.62 12.62h33.265zM351.978 325.974l-.002-.046c0-.016.003-.03.003-.046 0-3.26-1.772-6.272-4.622-7.857-2.85-1.584-6.34-1.502-9.112.218l-17.72 10.997c-2.8 1.736-6.277 1.736-9.075 0l-14.597-9.06c-6.7-4.16-15.02-4.16-21.72 0l-14.597 9.06c-2.8 1.736-6.277 1.736-9.076 0l-14.598-9.06c-6.698-4.158-15.02-4.158-21.72 0l-14.596 9.06c-2.8 1.736-6.277 1.737-9.075 0l-17.72-10.997c-2.77-1.72-6.26-1.804-9.11-.218-2.85 1.585-4.622 4.596-4.622 7.857 0 .015.003.03.003.046l-.002.046-.002 45.402c0 6.96 5.662 12.624 12.623 12.624h166.716c6.96 0 12.624-5.663 12.624-12.625zm-12.62 46.038H172.642c-.35 0-.636-.286-.636-.636l.002-40.107 13.143 8.156c6.7 4.156 15.022 4.156 21.72 0l14.596-9.06c2.8-1.738 6.276-1.738 9.076 0l14.597 9.06c3.35 2.078 7.104 3.117 10.86 3.117 3.753 0 7.51-1.04 10.858-3.118l14.598-9.06c2.798-1.737 6.275-1.738 9.075 0l14.6 9.06c6.7 4.158 15.02 4.157 21.718 0l13.142-8.156.002 40.106c0 .35-.284.636-.634.636z" fill="#6e6e6e"/>
  <path fill="none" stroke="#fff" stroke-width="2.518" d="M2.17 0H512v512H2.17z"/>
</svg>
