<?xml version="1.0" encoding="utf-8"?>
<!-- Generator: Adobe Illustrator 26.3.1, SVG Export Plug-In . SVG Version: 6.00 Build 0)  -->
<svg version="1.1" id="Layer_1" xmlns="http://www.w3.org/2000/svg" xmlns:xlink="http://www.w3.org/1999/xlink" x="0px" y="0px"
	 viewBox="120 320 345 215" xml:space="preserve">
<style type="text/css">
	.st0{fill:none;stroke:#010101;stroke-width:16;stroke-linecap:round;stroke-linejoin:round;stroke-miterlimit:10;}
	.st1{fill:#010101;stroke:#010101;stroke-width:12;stroke-linecap:round;stroke-linejoin:round;stroke-miterlimit:10;}
	.st2{fill:#010101;stroke:#010101;stroke-linecap:round;stroke-linejoin:round;stroke-miterlimit:10;}
</style>
<g>
	<circle class="st0" cx="221.86" cy="420.93" r="52.89"/>
	<circle class="st1" cx="221.86" cy="420.93" r="24.96"/>
	<path class="st2" d="M434.66,408.76l0.04,26.59l-13.81-0.02c0,0-5.68,0.33-5.68,5.65s5.68,5.74,5.68,5.74h13.84l0.04,24.5
		l-21.95-0.03l-0.01-12.69c0,0-0.54-4.68-5.59-4.64c-4.97,0.04-5.59,4.4-5.59,4.4v13.02h-21.08V446.8h13.93c0,0,5.53-0.36,5.43-5.91
		c-0.1-6.01-5.69-5.88-5.69-5.88l-115.49,0.1l-0.19-26.22L434.66,408.76z"/>
</g>
</svg>
