<?xml version="1.0" encoding="iso-8859-1"?>
<!-- Generator: Adobe Illustrator 17.1.0, SVG Export Plug-In . SVG Version: 6.00 Build 0)  -->
<!DOCTYPE svg PUBLIC "-//W3C//DTD SVG 1.1//EN" "http://www.w3.org/Graphics/SVG/1.1/DTD/svg11.dtd">
<svg version="1.1" id="Capa_1" xmlns="http://www.w3.org/2000/svg" xmlns:xlink="http://www.w3.org/1999/xlink" x="0px" y="0px"
	 viewBox="0 0 465 465" style="enable-background:new 0 0 465 465;" xml:space="preserve">
<path d="M442.411,228.35c0.062-0.248,0.11-0.499,0.147-0.756c0.004-0.027,0.009-0.053,0.012-0.08c0.032-0.25,0.052-0.503,0.06-0.76
	c0.001-0.025,0.003-0.05,0.004-0.074c0.001-0.047,0.007-0.093,0.007-0.14c0-1.103-0.244-2.148-0.672-3.091
	c-0.019-0.041-0.04-0.082-0.059-0.123c-0.096-0.203-0.201-0.401-0.315-0.593c-0.017-0.029-0.03-0.06-0.047-0.088L329.454,37.874
	c-0.02-0.033-0.044-0.062-0.064-0.095c-0.086-0.138-0.178-0.271-0.273-0.403c-0.045-0.062-0.088-0.126-0.135-0.187
	c-0.121-0.158-0.249-0.31-0.383-0.458c-0.051-0.056-0.103-0.11-0.155-0.164c-0.124-0.129-0.251-0.255-0.384-0.375
	c-0.072-0.065-0.148-0.125-0.222-0.186c-0.101-0.085-0.203-0.168-0.31-0.248c-0.081-0.06-0.163-0.117-0.246-0.174
	c-0.106-0.073-0.214-0.144-0.325-0.211c-0.085-0.052-0.17-0.102-0.256-0.15c-0.115-0.064-0.233-0.125-0.352-0.183
	c-0.086-0.042-0.172-0.085-0.26-0.124c-0.124-0.055-0.252-0.104-0.38-0.153c-0.087-0.033-0.173-0.068-0.26-0.098
	c-0.024-0.008-0.046-0.018-0.069-0.026c-0.994-0.326-22.858-7.398-56.018-10.966c-0.396-10.372-4.823-17.399-13.19-20.881
	C249.467,0,241.226,0,232.5,0c-8.725,0-16.967,0-23.67,2.79c-8.367,3.482-12.794,10.509-13.19,20.881
	c-33.161,3.568-55.024,10.64-56.018,10.966c-0.022,0.007-0.043,0.017-0.065,0.024c-0.095,0.032-0.189,0.07-0.283,0.106
	c-0.12,0.046-0.239,0.092-0.355,0.143c-0.095,0.042-0.188,0.088-0.281,0.134c-0.111,0.055-0.222,0.111-0.33,0.172
	c-0.093,0.052-0.184,0.105-0.275,0.161c-0.104,0.064-0.205,0.13-0.305,0.198c-0.089,0.061-0.177,0.122-0.264,0.186
	c-0.099,0.074-0.194,0.153-0.289,0.232c-0.08,0.066-0.161,0.131-0.239,0.201c-0.123,0.111-0.24,0.229-0.356,0.348
	c-0.067,0.069-0.133,0.138-0.197,0.209c-0.127,0.141-0.249,0.286-0.365,0.436c-0.047,0.062-0.091,0.127-0.137,0.19
	c-0.095,0.131-0.186,0.264-0.272,0.401c-0.02,0.033-0.044,0.062-0.064,0.095L23.453,222.645c-0.018,0.029-0.03,0.061-0.048,0.09
	c-0.113,0.191-0.217,0.387-0.313,0.589c-0.02,0.042-0.042,0.084-0.061,0.127c-0.427,0.943-0.672,1.987-0.672,3.09
	c0,0.048,0.006,0.094,0.007,0.141c0,0.023,0.003,0.045,0.003,0.068c0.007,0.259,0.027,0.515,0.06,0.767
	c0.003,0.025,0.008,0.049,0.011,0.074c0.036,0.26,0.086,0.515,0.148,0.765c0.004,0.017,0.009,0.034,0.013,0.051
	c0.069,0.27,0.152,0.534,0.25,0.792c0,0.001,0,0.002,0.001,0.002c0,0,0,0.001,0,0.001c0.408,1.073,1.052,2.025,1.872,2.797
	c0.008,0.007,0.016,0.014,0.024,0.022c0.194,0.181,0.398,0.352,0.611,0.511c0.014,0.011,0.028,0.021,0.042,0.032
	c0.701,0.519,1.491,0.921,2.349,1.172c39.325,12.163,66.783,49.516,66.783,90.877v56.917c0,11.442,2.318,22.353,6.503,32.291
	c0.137,0.385,0.298,0.758,0.493,1.111c12.91,29.443,42.322,50.07,76.475,50.07c4.142,0,7.5-3.358,7.5-7.5v-46.151
	c0-0.013,0.002-0.026,0.002-0.039s-0.002-0.026-0.002-0.039v-46.123c0-0.013,0.002-0.026,0.002-0.039s-0.002-0.026-0.002-0.039
	v-46.113c0-0.013,0.002-0.026,0.002-0.039s-0.002-0.026-0.002-0.039v-46.113c0-0.013,0.002-0.026,0.002-0.039
	s-0.002-0.026-0.002-0.039v-28.255c5.643,4.136,11.833,7.531,18.44,10.054l1.702,119.077c0.036,2.557,1.373,4.919,3.546,6.267
	c1.026,0.636,10.4,6.219,23.304,6.219c12.904,0,22.278-5.583,23.305-6.219c2.173-1.348,3.51-3.71,3.546-6.267l1.702-119.077
	c6.607-2.522,12.796-5.918,18.44-10.054v28.255c0,0.013-0.002,0.026-0.002,0.039s0.002,0.026,0.002,0.039v46.113
	c0,0.013-0.002,0.026-0.002,0.039s0.002,0.026,0.002,0.039v46.113c0,0.013-0.002,0.026-0.002,0.039s0.002,0.026,0.002,0.039v46.123
	c0,0.013-0.002,0.026-0.002,0.039s0.002,0.026,0.002,0.039V457.5c0,4.142,3.357,7.5,7.5,7.5c34.152,0,63.563-20.625,76.474-50.066
	c0.199-0.36,0.364-0.741,0.503-1.134c4.18-9.933,6.495-20.836,6.495-32.271v-56.917c0-41.361,27.457-78.714,66.781-90.876
	c0.859-0.251,1.651-0.654,2.353-1.174c0.012-0.009,0.024-0.018,0.036-0.027c0.215-0.162,0.421-0.334,0.618-0.517
	c0.006-0.006,0.012-0.011,0.018-0.016c0.82-0.771,1.464-1.722,1.872-2.793c0.001-0.002,0.002-0.004,0.003-0.006
	c0.001-0.003,0.002-0.007,0.003-0.01c0.096-0.254,0.178-0.513,0.246-0.779C442.4,228.391,442.406,228.371,442.411,228.35z
	 M365.767,126.65H321.76c2.719-22.721,5.055-45.47,6.63-61.612L365.767,126.65z M319.903,141.65h54.964l18.922,31.19h-78.299
	C317.003,163.336,318.489,152.674,319.903,141.65z M311.171,195.97c0.567-2.46,1.137-5.185,1.706-8.13h90.011l18.928,31.2H302.127
	C306.192,211.958,309.272,204.2,311.171,195.97z M200.999,38.2l5.59,11.688l3.713,24.247c0.568,3.71,3.763,6.366,7.404,6.366
	c0.377,0,0.76-0.028,1.145-0.087c4.094-0.627,6.905-4.455,6.278-8.549l-3.881-25.346c-0.111-0.729-0.33-1.436-0.647-2.101
	l-9.964-20.831C211.008,16.087,214.49,15,232.5,15c18.011,0,21.492,1.087,21.863,8.587l-9.963,20.831
	c-0.318,0.665-0.536,1.372-0.647,2.101l-3.882,25.346c-0.628,4.094,2.184,7.922,6.277,8.549c4.093,0.629,7.923-2.183,8.549-6.278
	l3.714-24.247l5.59-11.688c23.808,2.302,42.208,6.664,51.009,9.042c-0.844,9.086-2.584,27.304-4.839,48.257H154.83
	c-2.255-20.953-3.995-39.171-4.839-48.257C158.793,44.864,177.191,40.503,200.999,38.2z M90.134,141.65h54.964
	c1.414,11.024,2.9,21.686,4.414,31.19h-78.3L90.134,141.65z M136.611,65.038c1.575,16.142,3.911,38.891,6.63,61.612H99.234
	L136.611,65.038z M62.069,234.04h55.101c4.142,0,7.5-3.358,7.5-7.5s-3.358-7.5-7.5-7.5H43.184l18.928-31.2h90.012
	c0.569,2.945,1.138,5.67,1.706,8.13c1.898,8.23,4.979,15.988,9.043,23.07H147.17c-4.142,0-7.5,3.358-7.5,7.5s3.358,7.5,7.5,7.5
	h23.338v31.19H92.157c-1.429-2.226-2.93-4.418-4.528-6.558C80.492,249.118,71.802,240.799,62.069,234.04z M109.536,326.42h60.972
	v31.19h-60.972V326.42z M108.757,311.42c-1.285-10.822-4.168-21.295-8.537-31.19h70.288v31.19H108.757z M109.536,381.528v-8.918
	h60.972v31.2h-57.244C110.852,396.821,109.536,389.326,109.536,381.528z M120.62,418.81h49.888v30.782
	C149.63,447.306,131.557,435.587,120.62,418.81z M260.756,238.319c-1.058-2.794-3.734-4.802-6.903-4.847
	c-0.037,0-0.073-0.001-0.109-0.001c-4.092,0-7.438,3.288-7.497,7.393l-0.117,8.154c0,0.012,0,0.025-0.001,0.038l-1.71,119.668
	c-2.776,1.092-7.004,2.329-11.919,2.329c-4.889,0-9.131-1.244-11.918-2.339l-1.71-119.62c0-0.041-0.001-0.082-0.002-0.123
	l-0.116-8.106c-0.059-4.105-3.404-7.393-7.497-7.393c-0.037,0-0.073,0-0.109,0.001c-3.169,0.045-5.846,2.052-6.904,4.847
	c-7.683-3.677-14.474-8.801-20.102-15.081c-0.25-0.356-0.526-0.692-0.833-0.999c-0.305-0.434-0.656-0.832-1.044-1.192
	c-6.553-7.993-11.329-17.653-13.819-28.449c-2.585-11.207-5.251-28.453-7.74-47.347l37.525,6.428l-3.76,5.792
	c-2.255,3.474-1.268,8.119,2.207,10.374c1.261,0.819,2.677,1.21,4.077,1.21c2.455,0,4.861-1.205,6.297-3.417l9.961-15.345
	c1.374-2.116,1.592-4.781,0.58-7.091c-1.012-2.311-3.118-3.958-5.604-4.384l-53.253-9.123c-0.781-6.4-1.534-12.85-2.252-19.196
	h152.032c-0.718,6.346-1.472,12.796-2.252,19.196l-53.254,9.123c-2.486,0.426-4.592,2.073-5.604,4.384s-0.794,4.976,0.579,7.092
	l9.962,15.345c1.437,2.213,3.843,3.417,6.298,3.417c1.399,0,2.815-0.392,4.077-1.21c3.474-2.255,4.462-6.9,2.207-10.375
	l-3.761-5.792l37.526-6.428c-2.489,18.894-5.155,36.139-7.74,47.346c-2.495,10.812-7.281,20.485-13.85,28.486
	c-0.364,0.343-0.694,0.719-0.983,1.128c-0.318,0.314-0.605,0.659-0.863,1.025C275.23,229.517,268.439,234.642,260.756,238.319z
	 M294.492,372.61h22.498c4.143,0,7.5-3.358,7.5-7.5s-3.357-7.5-7.5-7.5h-22.498v-31.19h60.972v31.19h-8.474
	c-4.143,0-7.5,3.358-7.5,7.5s3.357,7.5,7.5,7.5h8.474v8.918c0,7.798-1.315,15.293-3.728,22.282h-57.244V372.61z M356.243,311.42
	h-61.751v-31.19h70.288C360.411,290.125,357.528,300.598,356.243,311.42z M294.492,449.592V418.81h49.888
	C333.443,435.587,315.371,447.306,294.492,449.592z M377.371,258.672c-1.598,2.14-3.099,4.331-4.528,6.558h-78.351v-31.19h108.439
	C393.198,240.799,384.508,249.118,377.371,258.672z"/>
<g>
</g>
<g>
</g>
<g>
</g>
<g>
</g>
<g>
</g>
<g>
</g>
<g>
</g>
<g>
</g>
<g>
</g>
<g>
</g>
<g>
</g>
<g>
</g>
<g>
</g>
<g>
</g>
<g>
</g>
</svg>
