<svg xmlns="http://www.w3.org/2000/svg" viewBox="0 0 512.002 512.002" width="512" height="512">
  <path d="M384.462 155.273h-51.67l-21.853-31.74c-1.123-1.63-2.976-2.605-4.956-2.605h-99.966c-1.98 0-3.833.974-4.955 2.605l-21.854 31.74h-16.926v-18.046c0-3.322-2.694-6.017-6.017-6.017H127.54c-3.323 0-6.018 2.695-6.018 6.017v18.768c-11.206 2.714-19.556 12.823-19.556 24.852v153.43c0 14.102 11.472 25.574 25.573 25.574h100.297c13.98 6.28 29.47 9.778 45.763 9.778s31.783-3.498 45.764-9.777h65.098c14.102 0 25.574-11.47 25.574-25.574v-153.43c0-14.1-11.472-25.573-25.574-25.573zm-175.28-22.312h93.64l14.85 21.57c-13.536-5.81-28.434-9.035-44.072-9.035-16.294 0-31.785 3.498-45.766 9.778H193.82zm-75.626 10.284h16.695v12.03h-16.694zm-6.017 204.573c-7.466 0-13.54-6.075-13.54-13.54v-153.43c0-7.466 6.074-13.54 13.54-13.54h79.71c-27.706 20.422-45.716 53.273-45.716 90.255 0 36.982 18.01 69.833 45.717 90.255zm146.06 9.778c-55.158 0-100.032-44.875-100.032-100.033 0-55.16 44.874-100.033 100.032-100.033 55.16 0 100.034 44.873 100.034 100.032 0 55.158-44.875 100.033-100.034 100.033zm124.402-23.32c0 7.467-6.075 13.542-13.54 13.542H339.95c27.707-20.422 45.718-53.273 45.718-90.255 0-36.982-18.01-69.833-45.716-90.255h44.51c7.466 0 13.54 6.074 13.54 13.54z" fill="#6e6e6e"/>
  <path d="M147.615 324.865H136.95v-27.62c0-3.322-2.695-6.016-6.017-6.016-3.323 0-6.017 2.693-6.017 6.016v33.636c0 3.323 2.694 6.017 6.017 6.017h16.683c3.322 0 6.017-2.695 6.017-6.018 0-3.322-2.695-6.017-6.018-6.017zM130.933 274.492c-3.323 0-6.017 2.694-6.017 6.017v.284c0 3.322 2.694 6.017 6.017 6.017 3.322 0 6.017-2.694 6.017-6.016v-.285c0-3.324-2.695-6.018-6.017-6.018zM273.6 169.594c-48.504 0-87.966 39.462-87.966 87.968 0 48.505 39.462 87.968 87.966 87.968 48.505 0 87.967-39.463 87.967-87.968 0-48.506-39.462-87.968-87.967-87.968zm0 163.902c-41.87 0-75.932-34.064-75.932-75.934s34.063-75.934 75.932-75.934c41.87 0 75.933 34.064 75.933 75.934s-34.063 75.934-75.933 75.934z" fill="#6e6e6e"/>
  <path d="M327.04 217.815c-8.437-11.326-19.983-19.547-33.388-23.776-3.168-1-6.55.758-7.548 3.927-1 3.17.76 6.55 3.928 7.55 22.806 7.19 38.13 28.107 38.13 52.044 0 3.323 2.693 6.018 6.016 6.018s6.017-2.695 6.017-6.017c0-14.446-4.55-28.19-13.156-39.745zM274.274 190.968l-.674-.002c-3.323 0-6.017 2.694-6.017 6.017 0 3.322 2.694 6.017 6.017 6.017l.57.002h.053c3.3 0 5.987-2.66 6.016-5.965.027-3.322-2.643-6.04-5.966-6.07zM153.632 175.964c-9.953 0-18.05 8.098-18.05 18.052 0 9.953 8.097 18.05 18.05 18.05 9.954 0 18.052-8.097 18.052-18.05 0-9.954-8.098-18.052-18.052-18.052zm0 24.068c-3.318 0-6.017-2.698-6.017-6.016 0-3.32 2.7-6.018 6.017-6.018 3.32 0 6.018 2.7 6.018 6.018 0 3.317-2.7 6.016-6.018 6.016z" fill="#6e6e6e"/>
  <path fill="none" stroke="#fff" stroke-width="2.518" d="M0 0h516.34v516.34H0z"/>
  <path fill="none" stroke="#fff" stroke-width="2.518" d="M-114.984-121.492H776.68v800.545h-891.664z"/>
</svg>
