<svg xmlns="http://www.w3.org/2000/svg" viewBox="0 0 482.14 482.14" width="512" height="512">
  <g fill="#6e6e6e">
    <path d="M191.548 275.632c0-4.004-2.778-6.39-7.68-6.39-2-.002-3.357.196-4.065.385v12.845c.84.19 1.87.252 3.293.252 5.225 0 8.452-2.64 8.452-7.093zm30.343-6.257c-2.194 0-3.613.19-4.452.386v28.45c.84.196 2.195.196 3.42.196 8.905.063 14.712-4.84 14.712-15.225.063-9.03-5.23-13.806-13.68-13.806z"/>
    <path d="M278.265 120.534H181.44c-14.144 0-25.656 11.52-25.656 25.658v94.877h-2.506c-5.71 0-10.34 4.625-10.34 10.34v62.7c0 5.714 4.63 10.34 10.34 10.34h2.506v11.496c0 14.152 11.513 25.657 25.658 25.657h132.112c14.136 0 25.65-11.505 25.65-25.657V181.26zm-108.203 142.19c3.03-.512 7.29-.898 13.29-.898 6.064 0 10.385 1.157 13.29 3.482 2.774 2.19 4.645 5.808 4.645 10.064 0 4.255-1.418 7.872-4 10.323-3.356 3.16-8.32 4.58-14.128 4.58-1.293 0-2.452-.065-3.358-.19v15.547h-9.74zm143.49 83.167h-132.11c-5.477 0-9.937-4.46-9.937-9.944V324.45H294.66c5.71 0 10.34-4.626 10.34-10.34v-62.702c0-5.714-4.63-10.34-10.34-10.34H171.505v-94.876c0-5.47 4.46-9.93 9.937-9.93l90.945-.094v33.616c0 9.82 7.968 17.794 17.794 17.794l32.932-.095.37 148.463c0 5.485-4.45 9.945-9.928 9.945zM207.57 305.435v-42.71c3.61-.575 8.32-.898 13.29-.898 8.257 0 13.612 1.48 17.808 4.64 4.515 3.358 7.352 8.71 7.352 16.39 0 8.323-3.03 14.068-7.227 17.613-4.578 3.805-11.548 5.61-20.062 5.61-5.1 0-8.71-.323-11.162-.645zm70.412-25.287v7.998h-15.615v17.487h-9.87V262.15h26.58v8.06h-16.71v9.938z"/>
  </g>
  <path fill="none" stroke="#fff" stroke-width="2.371" d="M0 0h484.183v482.14H0z"/>
</svg>
