<svg xmlns="http://www.w3.org/2000/svg" viewBox="0 0 399.99998 499.99998">
  <path d="M312.684 439.85H91.622c-23.438 0-42.512-19.064-42.512-42.513V74.245c0-23.438 19.073-42.51 42.512-42.51h221.062c23.448 0 42.513 19.07 42.513 42.51v323.092c0 23.447-19.063 42.512-42.513 42.512zM91.622 48.74c-14.066 0-25.507 11.44-25.507 25.506v323.09c0 14.066 11.442 25.507 25.507 25.507h221.062c14.067 0 25.507-11.44 25.507-25.506V74.245c0-14.066-11.44-25.507-25.506-25.507H91.622zm221.062 323.09H91.622c-4.7 0-8.502-3.803-8.502-8.503V91.25c0-4.7 3.802-8.5 8.502-8.5h221.062c4.7 0 8.502 3.8 8.502 8.5v272.077c0 4.7-3.802 8.502-8.502 8.502zm-212.56-17.005h204.06V99.752h-204.06v255.073z" fill="#636363"/>
  <path d="M202.153 57.24c-4.693 0-8.5 3.81-8.5 8.503s3.807 8.503 8.5 8.503c4.694 0 8.502-3.808 8.502-8.502 0-4.694-3.808-8.503-8.502-8.503zM202.153 414.342c-9.374 0-17.005-7.622-17.005-17.005s7.63-17.005 17.005-17.005c9.383 0 17.006 7.623 17.006 17.005 0 9.383-7.624 17.006-17.007 17.006z" fill="#636363" stroke="#636363" stroke-width=".757"/>
</svg>
