<svg xmlns="http://www.w3.org/2000/svg" viewBox="0 0 512 512" >
  <path fill="#636363" d="M248.512 18.48c-32.578-.086-52.916 34.52-54.65 58.356l23.64 14.547 26.334-8.41s-.994 22.18-5.81 21.927c-25.343-.124-79.06 1.74-114.796 5.588-3.243 26.137-5.325 58.266-4.015 84.403l-42.358 9.47c5.398 7.572 28.207 18.896 54.94 16.56 7.804-25.384 20.65-61.55 19.463-85.55 22.023 4.866 44.19 8.626 66.97 7.446 3.797 22.326 3.66 43.358 10.375 63.83 22.296 6.157 44.447 14.398 63.29 20.788 7.68-27.1 11.07-54.355 15.066-83.452 0 0 81.217-.02 85.224.55 4.006.574-1.135-91.85-1.135-91.85C411.28 48.71 420 42 430.524 31.238c-20.892-5.236-37.465-3.41-56.656 1.44l-7.417 81.246c-21.052-5.688-59.138-10.703-90.572-9.717l-3.77-18.81c10.163 2.38 24.458 7.756 33.533 8.582 5.676-1.62 3.628-14.765 3.187-15.877-17.932-1.544-14.697.56-19.248-16.197l16.053.153c-7.84-26.946-34.732-43.52-57.123-43.576zm-15.155 208.524c-1.813 4.053-4.194 9.634-7.05 16.54-5.98 14.45-13.723 33.817-21.377 53.183-11.625 29.41-18.16 46.38-22.985 58.837l149.034-52.888-42.09-56.91-55.533-18.762zm103.456 93.05c-15.556 5.35-30.83 11.464-46.178 17.374 8.913 14.955 15.794 30.925 28.902 43.783-2.248 18.195-3.51 26.487 1.717 38.06 9.383 20.786 49.22 47.515 49.22 47.515-1.627 6.57-8.79 19.485 0 26.748h59.24c4.797-5.58 2.226-10.342 1.43-15.3-46.64 3.79-65.324-57.482-83.562-92.442-.228-22.752-4.51-44.492-10.77-65.737zm-112.74 40.01l-54.864 19.47c-7.347 8.975-16.395 12.54-22.52 21.28-16.726 23.86-27.964 61.48-38.633 78.416-1.998 4.348-.924 11.468.86 14.303h68.106c4.58 0-.572-12.586-.572-12.586-19.357.345-29.844-2.456-37.772-12.017 7.137-26.23 33.068-43.45 50.365-66.97 16.006-10.36 25.745-27.625 35.03-41.896z" style="touch-action:none"/>
</svg>
