<?xml version="1.0" encoding="iso-8859-1"?>
<!-- Generator: Adobe Illustrator 16.0.0, SVG Export Plug-In . SVG Version: 6.00 Build 0)  -->
<!DOCTYPE svg PUBLIC "-//W3C//DTD SVG 1.1//EN" "http://www.w3.org/Graphics/SVG/1.1/DTD/svg11.dtd">
<svg version="1.1" id="Capa_1" xmlns="http://www.w3.org/2000/svg" xmlns:xlink="http://www.w3.org/1999/xlink" x="0px" y="0px"
	 width="515.829px" height="515.829px" viewBox="0 0 515.829 515.829" style="enable-background:new 0 0 515.829 515.829;"
	 xml:space="preserve">
<g>
	<path d="M297.257,83.057H0c0-19.312,15.659-34.971,34.972-34.971h52.457V30.6c0-14.487,11.742-26.229,26.229-26.229H183.6
		c14.487,0,26.229,11.742,26.229,26.229v17.486h52.458C281.599,48.086,297.257,63.745,297.257,83.057z M0,459h297.257V100.543H0V459
		z M34.972,511.458h227.314c19.312,0,34.971-15.658,34.971-34.972H0C0,495.799,15.659,511.458,34.972,511.458z M515.829,144.257
		v74.069c0,8.394-4.014,16.279-10.798,21.21l-48.356,54.975c-23.859,27.129-37.018,62.013-37.018,98.13v22.644
		c0,14.487-11.741,26.229-26.229,26.229h-78.686V118.029H489.6C504.087,118.029,515.829,129.771,515.829,144.257z M358.457,389.057
		c0-4.826-3.917-8.742-8.742-8.742h-8.743c-4.826,0-8.743,3.916-8.743,8.742v17.486c0,4.826,3.917,8.742,8.743,8.742h8.743
		c4.825,0,8.742-3.916,8.742-8.742V389.057z M358.457,153c0-4.826-3.917-8.743-8.742-8.743h-8.743c-4.826,0-8.743,3.917-8.743,8.743
		v17.485c0,4.826,3.917,8.743,8.743,8.743h8.743c4.825,0,8.742-3.917,8.742-8.743V153z M402.172,389.057
		c0-4.826-3.917-8.742-8.743-8.742h-8.743c-4.826,0-8.742,3.916-8.742,8.742v17.486c0,4.826,3.916,8.742,8.742,8.742h8.743
		c4.826,0,8.743-3.916,8.743-8.742V389.057z M402.172,153c0-4.826-3.917-8.743-8.743-8.743h-8.743c-4.826,0-8.742,3.917-8.742,8.743
		v17.485c0,4.826,3.916,8.743,8.742,8.743h8.743c4.826,0,8.743-3.917,8.743-8.743V153z M445.886,153
		c0-4.826-3.917-8.743-8.743-8.743H428.4c-4.826,0-8.743,3.917-8.743,8.743v17.485c0,4.826,3.917,8.743,8.743,8.743h8.742
		c4.826,0,8.743-3.917,8.743-8.743V153z M489.6,153c0-4.826-3.916-8.743-8.742-8.743h-8.743c-4.826,0-8.743,3.917-8.743,8.743
		v17.485c0,4.826,3.917,8.743,8.743,8.743h8.743c4.826,0,8.742-3.917,8.742-8.743V153z" fill="#636363" color="#000"/>
</g>
<g>
</g>
<g>
</g>
<g>
</g>
<g>
</g>
<g>
</g>
<g>
</g>
<g>
</g>
<g>
</g>
<g>
</g>
<g>
</g>
<g>
</g>
<g>
</g>
<g>
</g>
<g>
</g>
<g>
</g>
</svg>
