<svg xmlns="http://www.w3.org/2000/svg" viewBox="0 0 465 465">
  <path fill="#FFFFFF" d="M442.411 228.35c.062-.248.11-.499.147-.756.004-.027.009-.053.012-.08a7.92 7.92 0 0 0 .06-.76l.004-.074c.001-.047.007-.093.007-.14a7.458 7.458 0 0 0-.672-3.091l-.059-.123a7.141 7.141 0 0 0-.315-.593c-.017-.029-.03-.06-.047-.088L329.454 37.874c-.02-.033-.044-.062-.064-.095a7.304 7.304 0 0 0-.273-.403c-.045-.062-.088-.126-.135-.187a7.254 7.254 0 0 0-.383-.458c-.051-.056-.103-.11-.155-.164a7.548 7.548 0 0 0-.384-.375c-.072-.065-.148-.125-.222-.186a6.866 6.866 0 0 0-1.137-.783 7.32 7.32 0 0 0-.352-.183c-.086-.042-.172-.085-.26-.124-.124-.055-.252-.104-.38-.153-.087-.033-.173-.068-.26-.098l-.069-.026c-.994-.326-22.858-7.398-56.018-10.966-.396-10.372-4.823-17.399-13.19-20.881C249.467 0 241.226 0 232.5 0c-8.725 0-16.967 0-23.67 2.79-8.367 3.482-12.794 10.509-13.19 20.881-33.161 3.568-55.024 10.64-56.018 10.966-.022.007-.043.017-.065.024-.095.032-.189.07-.283.106-.12.046-.239.092-.355.143-.095.042-.188.088-.281.134a6.884 6.884 0 0 0-.91.531 9.646 9.646 0 0 0-.264.186 7.151 7.151 0 0 0-.289.232c-.08.066-.161.131-.239.201-.123.111-.24.229-.356.348a7.736 7.736 0 0 0-.562.645c-.047.062-.091.127-.137.19a7.238 7.238 0 0 0-.272.401c-.02.033-.044.062-.064.095L23.453 222.645c-.018.029-.03.061-.048.09a7.355 7.355 0 0 0-.313.589c-.02.042-.042.084-.061.127a7.47 7.47 0 0 0-.672 3.09c0 .048.006.094.007.141 0 .023.003.045.003.068.007.259.027.515.06.767l.011.074c.036.26.086.515.148.765l.013.051a7.36 7.36 0 0 0 .251.794v.001a7.502 7.502 0 0 0 1.872 2.797l.024.022c.194.181.398.352.611.511l.042.032a7.47 7.47 0 0 0 2.349 1.172c39.325 12.163 66.783 49.516 66.783 90.877v56.917a83.012 83.012 0 0 0 6.503 32.291c.137.385.298.758.493 1.111 12.91 29.443 42.322 50.07 76.475 50.07a7.5 7.5 0 0 0 7.5-7.5v-46.151l.002-.039-.002-.039V365.15l.002-.039-.002-.039v-46.113l.002-.039-.002-.039v-46.113l.002-.039-.002-.039v-28.255a78.662 78.662 0 0 0 18.44 10.054l1.702 119.077a7.5 7.5 0 0 0 3.546 6.267c1.026.636 10.4 6.219 23.304 6.219 12.904 0 22.278-5.583 23.305-6.219a7.5 7.5 0 0 0 3.546-6.267l1.702-119.077a78.645 78.645 0 0 0 18.44-10.054v28.255l-.002.039.002.039v46.113l-.002.039.002.039v46.113l-.002.039.002.039v46.123l-.002.039.002.039V457.5a7.5 7.5 0 0 0 7.5 7.5c34.152 0 63.563-20.625 76.474-50.066.199-.36.364-.741.503-1.134a83.006 83.006 0 0 0 6.495-32.271v-56.917c0-41.361 27.457-78.714 66.781-90.876a7.474 7.474 0 0 0 2.353-1.174l.036-.027a7.83 7.83 0 0 0 .618-.517l.018-.016a7.495 7.495 0 0 0 1.872-2.793l.003-.006.003-.01c.096-.254.178-.513.246-.779a.465.465 0 0 0 .02-.064zm-76.644-101.7H321.76c2.719-22.721 5.055-45.47 6.63-61.612l37.377 61.612zm-45.864 15h54.964l18.922 31.19H315.49c1.513-9.504 2.999-20.166 4.413-31.19zm-8.732 54.32c.567-2.46 1.137-5.185 1.706-8.13h90.011l18.928 31.2H302.127a84.485 84.485 0 0 0 9.044-23.07zM200.999 38.2l5.59 11.688 3.713 24.247a7.501 7.501 0 0 0 8.549 6.279 7.5 7.5 0 0 0 6.278-8.549l-3.881-25.346a7.508 7.508 0 0 0-.647-2.101l-9.964-20.831c.371-7.5 3.853-8.587 21.863-8.587 18.011 0 21.492 1.087 21.863 8.587L244.4 44.418a7.476 7.476 0 0 0-.647 2.101l-3.882 25.346a7.5 7.5 0 1 0 14.826 2.271l3.714-24.247 5.59-11.688c23.808 2.302 42.208 6.664 51.009 9.042a3443.388 3443.388 0 0 1-4.839 48.257H154.83a3443.388 3443.388 0 0 1-4.839-48.257c8.802-2.379 27.2-6.74 51.008-9.043zM90.134 141.65h54.964c1.414 11.024 2.9 21.686 4.414 31.19h-78.3l18.922-31.19zm46.477-76.612c1.575 16.142 3.911 38.891 6.63 61.612H99.234l37.377-61.612zM62.069 234.04h55.101a7.5 7.5 0 0 0 0-15H43.184l18.928-31.2h90.012c.569 2.945 1.138 5.67 1.706 8.13a84.483 84.483 0 0 0 9.043 23.07H147.17a7.5 7.5 0 0 0 0 15h23.338v31.19H92.157a112.68 112.68 0 0 0-4.528-6.558c-7.137-9.554-15.827-17.873-25.56-24.632zm47.467 92.38h60.972v31.19h-60.972v-31.19zm-.779-15a108.876 108.876 0 0 0-8.537-31.19h70.288v31.19h-61.751zm.779 70.108v-8.918h60.972v31.2h-57.244a68.174 68.174 0 0 1-3.728-22.282zm11.084 37.282h49.888v30.782c-20.878-2.286-38.951-14.005-49.888-30.782zm140.136-180.491a7.497 7.497 0 0 0-6.903-4.847l-.109-.001a7.5 7.5 0 0 0-7.497 7.393l-.117 8.154-.001.038-1.71 119.668c-2.776 1.092-7.004 2.329-11.919 2.329-4.889 0-9.131-1.244-11.918-2.339l-1.71-119.62-.002-.123-.116-8.106a7.5 7.5 0 0 0-7.497-7.393l-.109.001a7.497 7.497 0 0 0-6.904 4.847 64.115 64.115 0 0 1-20.102-15.081 7.518 7.518 0 0 0-.833-.999 7.548 7.548 0 0 0-1.044-1.192c-6.553-7.993-11.329-17.653-13.819-28.449-2.585-11.207-5.251-28.453-7.74-47.347l37.525 6.428-3.76 5.792a7.5 7.5 0 0 0 6.284 11.584 7.494 7.494 0 0 0 6.297-3.417l9.961-15.345a7.497 7.497 0 0 0-5.024-11.475l-53.253-9.123c-.781-6.4-1.534-12.85-2.252-19.196h152.032a2252.282 2252.282 0 0 1-2.252 19.196l-53.254 9.123a7.5 7.5 0 0 0-5.025 11.476l9.962 15.345a7.495 7.495 0 0 0 10.375 2.207 7.501 7.501 0 0 0 2.207-10.375l-3.761-5.792 37.526-6.428c-2.489 18.894-5.155 36.139-7.74 47.346-2.495 10.812-7.281 20.485-13.85 28.486a7.488 7.488 0 0 0-.983 1.128 7.553 7.553 0 0 0-.863 1.025 64.118 64.118 0 0 1-20.102 15.082zm33.736 134.291h22.498c4.143 0 7.5-3.358 7.5-7.5s-3.357-7.5-7.5-7.5h-22.498v-31.19h60.972v31.19h-8.474c-4.143 0-7.5 3.358-7.5 7.5s3.357 7.5 7.5 7.5h8.474v8.918a68.148 68.148 0 0 1-3.728 22.282h-57.244v-31.2zm61.751-61.19h-61.751v-31.19h70.288a108.876 108.876 0 0 0-8.537 31.19zm-61.751 138.172V418.81h49.888c-10.937 16.777-29.009 28.496-49.888 30.782zm82.879-190.92a112.341 112.341 0 0 0-4.528 6.558h-78.351v-31.19h108.439c-9.733 6.759-18.423 15.078-25.56 24.632z"/>
</svg>
